<?xml version="1.0" encoding="iso-8859-1"?>
<!-- Generator: Adobe Illustrator 19.0.0, SVG Export Plug-In . SVG Version: 6.00 Build 0)  -->
<svg version="1.1" id="Layer_1" xmlns="http://www.w3.org/2000/svg" xmlns:xlink="http://www.w3.org/1999/xlink" x="0px" y="0px"
	 viewBox="0 0 512 512" style="enable-background:new 0 0 512 512;" xml:space="preserve">
<polygon style="fill:#E0B76E;" points="376.808,187.877 256,512 28.996,384.006 28.996,127.994 "/>
<polygon style="fill:#F4CE8F;" points="256,0 28.996,127.994 256,256 256,512 483.004,384.006 483.004,127.994 "/>
<polygon style="fill:#F2CA7F;" points="256,256 256,512 483.004,384.006 483.004,127.994 "/>
<polyline style="fill:#79B1D6;" points="331.205,42.407 104.201,170.401 174.43,210.009 401.434,82.004 401.445,82.004 "/>
<g>
	<polygon style="fill:#898686;" points="403.227,272.518 369.285,248.933 334.261,311.297 360.046,296.799 360.046,402.452 
		377.989,392.332 377.989,286.709 	"/>
	<polygon style="fill:#898686;" points="166.189,257.591 166.189,278.202 64.679,220.951 64.679,200.353 	"/>
	<polygon style="fill:#898686;" points="166.189,308.908 166.189,329.519 64.679,272.28 64.679,251.682 	"/>
</g>
<g>
</g>
<g>
</g>
<g>
</g>
<g>
</g>
<g>
</g>
<g>
</g>
<g>
</g>
<g>
</g>
<g>
</g>
<g>
</g>
<g>
</g>
<g>
</g>
<g>
</g>
<g>
</g>
<g>
</g>
</svg>
