<?xml version="1.0" ?><!DOCTYPE svg  PUBLIC '-//W3C//DTD SVG 1.1//EN'  'http://www.w3.org/Graphics/SVG/1.1/DTD/svg11.dtd'><svg enable-background="new 0 0 100 100" id="Layer_1" version="1.1" viewBox="0 0 100 100" xml:space="preserve" xmlns="http://www.w3.org/2000/svg" xmlns:xlink="http://www.w3.org/1999/xlink"><g><path d="M50.2,21.1c-12.7,0-22.9,10.3-22.9,22.9s22.9,37.1,22.9,37.1S73.1,56.7,73.1,44S62.9,21.1,50.2,21.1z    M50.2,78.1c-2.1-2.3-6-6.8-9.9-12.1c-7.2-9.7-11-17.3-11-22.1c0-11.5,9.4-20.9,20.9-20.9S71.1,32.5,71.1,44   c0,4.7-3.8,12.4-11,22.1C56.2,71.3,52.3,75.8,50.2,78.1z" fill="#221F1F"/><path d="M50.2,32.1c-6,0-10.8,4.8-10.8,10.8c0,6,4.8,10.8,10.8,10.8c6,0,10.8-4.8,10.8-10.8   C61,37,56.2,32.1,50.2,32.1z M56.4,49.2c-1.6,1.6-3.8,2.6-6.2,2.6c-2.4,0-4.6-1-6.2-2.6c-1.6-1.6-2.6-3.8-2.6-6.2   c0-2.4,1-4.6,2.6-6.2c1.6-1.6,3.8-2.6,6.2-2.6c2.4,0,4.6,1,6.2,2.6c1.6,1.6,2.6,3.8,2.6,6.2C59,45.4,58,47.6,56.4,49.2z" fill="#221F1F"/></g></svg>